<svg height="512pt" viewBox="0 0 512 512.00034" width="512pt" xmlns="http://www.w3.org/2000/svg"><path d="m506.308594 38.996094c-3.972656-16.132813-16.394532-28.804688-32.433594-33.078125-60.382812-16.121094-125.285156 1.253906-169.382812 45.351562-1.875 1.875-2.929688 4.417969-2.929688 7.070313s1.054688 5.195312 2.929688 7.070312l49.835937 49.835938-17.464844 17.464844-.78125-.65625c-4.222656-3.5625-10.53125-3.03125-14.09375 1.1875s-3.03125 10.53125 1.191407 14.09375l7.800781 6.585937c1.871093 1.582031 4.164062 2.359375 6.449219 2.359375 2.570312 0 5.128906-.984375 7.074218-2.925781l23.964844-23.964844 14.140625 14.140625-23.945313 23.945312c-3.675781 3.675782-3.921874 9.550782-.566406 13.523438l65.011719 76.984375c1.722656 2.035156 2.554687 4.621094 2.335937 7.277344-.222656 2.660156-1.460937 5.078125-3.496093 6.800781-4.203125 3.5625-10.523438 3.039062-14.066407-1.144531l-62.875-74.453125c-1.804687-2.140625-4.425781-3.421875-7.21875-3.542969-2.796874-.121094-5.515624.941406-7.492187 2.921875l-35.273437 35.277344c-3.675782 3.671875-3.921876 9.550781-.570313 13.519531l49.257813 58.328125c1.726562 2.035156 2.554687 4.621094 2.335937 7.28125-.21875 2.65625-1.460937 5.074219-3.496094 6.800781-4.203125 3.558594-10.515625 3.039063-14.066406-1.148437l-47.117187-55.796875c-1.804688-2.136719-4.425782-3.421875-7.21875-3.539063-2.789063-.117187-5.515626.941406-7.492188 2.921875l-35.273438 35.269531c-3.675781 3.675782-3.921874 9.554688-.570312 13.523438l26.621094 31.523438c3.566406 4.199218 3.042968 10.515624-1.15625 14.078124-2.035156 1.726563-4.617188 2.554688-7.28125 2.335938-2.660156-.21875-5.074219-1.457031-6.785156-3.480469l-24.488282-28.988281c-1.804687-2.140625-4.421875-3.421875-7.21875-3.539062-2.78125-.125-5.511718.9375-7.492187 2.917968l-47.210938 47.210938c-3.898437 3.898437-10.242187 3.898437-14.140625 0-1.890625-1.886719-2.929687-4.398438-2.929687-7.070313s1.039062-5.179687 2.929687-7.070312l47.191406-47.191407c1.976563-1.980468 3.035157-4.699218 2.917969-7.492187-.117187-2.796875-1.398437-5.414063-3.539062-7.21875l-28.730469-24.261719c-4.199219-3.5625-4.71875-9.878906-1.160156-14.078125 3.566406-4.203125 9.882812-4.722656 14.097656-1.148437l31.261719 26.398437c3.96875 3.351563 9.847656 3.105469 13.519531-.570312l35.273438-35.269531c1.980468-1.980469 3.035156-4.695313 2.917968-7.492188-.117187-2.796875-1.398437-5.414062-3.535156-7.21875l-55.535156-46.898438c-2.035156-1.726562-3.277344-4.140624-3.496094-6.800781-.21875-2.65625.609375-5.242187 2.335938-7.277343 1.726562-2.035157 4.140624-3.277344 6.800781-3.496094 2.667969-.214844 5.242187.609375 7.292969 2.347656l58.066406 49.035156c3.96875 3.351563 9.847656 3.105469 13.519531-.570312l35.273437-35.269532c1.980469-1.980468 3.035157-4.699218 2.921876-7.492187-.121094-2.796875-1.402344-5.414063-3.539063-7.21875l-74.191406-62.652344c-2.035157-1.726562-3.277344-4.140625-3.496094-6.800781s.609375-5.246094 2.335937-7.28125c1.726563-2.035156 4.140626-3.273438 6.800782-3.496094 2.65625-.214844 5.246094.613282 7.292968 2.351563l7.796876 6.582031c4.222656 3.5625 10.53125 3.03125 14.09375-1.1875s3.03125-10.527344-1.1875-14.09375l-7.785157-6.570312c-6.109375-5.179688-13.871093-7.671876-21.855469-7.015626-7.980468.660157-15.230468 4.386719-20.410156 10.496094-5.179687 6.109375-7.671875 13.871094-7.015625 21.855469.660157 7.980469 4.386719 15.230469 10.511719 20.425781l65.894531 55.644532-21.082031 21.082031-51.027344-43.089844c-6.109375-5.183594-13.875-7.671875-21.851562-7.015625-7.984375.660156-15.234375 4.386719-20.414063 10.496094-5.179687 6.109375-7.671875 13.871094-7.011719 21.855468.65625 7.980469 4.382813 15.230469 10.507813 20.425782l47.238281 39.890625-21.082031 21.078125-24.222656-20.453125c-12.609375-10.695313-31.574219-9.132813-42.269531 3.480469-10.691407 12.613281-9.128907 31.574218 3.496093 42.28125l20.433594 17.253906-17.300781 17.300781c-16.46875-10.105469-35.648438-15.601563-54.867188-15.601563-37.277344 0-72.058594 20.085938-90.761718 52.417969-5.550782 9.578125-5.4375 21.402344.285156 30.886719 15.121094 25.816406 40.96875 44.074219 70.152344 49.917969 5.839843 29.183593 24.097656 55.023437 49.914062 70.148437 4.824219 2.914063 10.257812 4.371094 15.691406 4.371094 5.242188 0 10.488282-1.359375 15.191406-4.082031 14.667969-8.484375 27.214844-20.59375 36.285157-35.019531 2.941406-4.675782 1.535156-10.847657-3.140625-13.789063-4.675782-2.941406-10.851563-1.53125-13.789063 3.140625-7.351562 11.6875-17.507812 21.492188-29.375 28.359375-3.269531 1.894531-7.316406 1.847656-10.554687-.117187-.046875-.03125-.097656-.058594-.144532-.085938-22.699218-13.277344-38.191406-36.78125-41.449218-62.875-.566406-4.542969-4.144532-8.121094-8.683594-8.6875-26.097656-3.253906-49.601562-18.746094-62.875-41.445312-.03125-.050782-.058594-.097657-.085938-.144532-1.96875-3.238281-2.015624-7.285156-.113281-10.5625 15.140625-26.175781 43.289063-42.4375 73.453125-42.4375 13.941406 0 27.867188 3.601563 40.21875 10.253906l-7.550781 7.550782c-5.667969 5.664062-8.785156 13.199218-8.785156 21.210937s3.117187 15.546875 8.785156 21.214844c5.847656 5.847656 13.53125 8.769531 21.210937 8.769531 7.683594 0 15.367188-2.921875 21.214844-8.769531l7.5625-7.5625c2.476563 4.582031 4.546875 9.378906 6.15625 14.355469 1.363282 4.234375 5.289063 6.929687 9.511719 6.929687 1.019531 0 2.054687-.15625 3.074219-.484375 5.257812-1.699218 8.140625-7.332031 6.445312-12.589844-2.59375-8.03125-6.132812-15.6875-10.542968-22.855468l17.3125-17.3125 17.476562 20.695312c5.179688 6.109375 12.429688 9.835938 20.414062 10.496094 7.980469.65625 15.746094-1.835938 21.855469-7.015625 12.609375-10.695313 14.171875-29.65625 3.492188-42.253906l-20.675781-24.484375 21.078124-21.082032 40.113282 47.503907c10.691406 12.609375 29.652344 14.171875 42.265625 3.480469 6.109375-5.179688 9.839843-12.429688 10.496093-20.414063s-1.832031-15.746094-7-21.839844l-43.3125-51.292969 21.078126-21.078124 55.871093 66.15625c10.691407 12.613281 29.652344 14.175781 42.265625 3.480468 6.109375-5.179687 9.835938-12.429687 10.496094-20.414062.65625-7.980469-1.835938-15.742188-7-21.839844l-59.070312-69.945312 17.449218-17.445313 49.835938 49.835937c1.875 1.875 4.417968 2.929688 7.070312 2.929688s5.195313-1.054688 7.070313-2.929688c43.835937-43.835937 61.296875-108.398437 45.578125-168.511718zm-52.878906 147.070312-77.890626-77.886718v-.003907l-49.605468-49.605469c38.722656-33.980468 92.519531-46.75 142.785156-33.328124 9.003906 2.398437 15.96875 9.519531 18.183594 18.582031.015625.054687.027344.109375.039062.164062 13.109375 50.042969.273438 103.566407-33.511718 142.078125zm0 0"/><path d="m430.417969 53.082031h-8.5v-8.5c0-5.523437-4.476563-10-10-10-5.523438 0-10 4.476563-10 10v8.5h-8.5c-5.523438 0-10 4.476563-10 10 0 5.523438 4.476562 10 10 10h8.5v8.5c0 5.523438 4.476562 10 10 10 5.523437 0 10-4.476562 10-10v-8.5h8.5c5.519531 0 10-4.476562 10-10 0-5.523437-4.480469-10-10-10zm0 0"/><path d="m292.671875 121.570312c1.867187 1.558594 4.136719 2.320313 6.394531 2.320313 2.863282 0 5.710938-1.226563 7.6875-3.601563 3.535156-4.242187 2.964844-10.546874-1.28125-14.082031l-.003906-.003906c-4.242188-3.539063-10.546875-2.960937-14.082031 1.28125-3.535157 4.242187-2.960938 10.550781 1.285156 14.085937zm0 0"/><path d="m198.320312 419.042969c-5.46875-.730469-10.503906 3.117187-11.234374 8.59375-.730469 5.472656 3.117187 10.503906 8.59375 11.234375.445312.058594.894531.085937 1.332031.085937 4.9375 0 9.230469-3.652343 9.898437-8.675781l.003906-.007812c.726563-5.476563-3.117187-10.5-8.59375-11.230469zm0 0"/></svg>